# xmcd
#
# Track frame offsets: 
#        150
#        17948
#        35400
#        53093
#        69481
#        85437
#        99886
#        114984
#        134558
#        150028
#        164315
#        177143
#        193989
#
# Disc length: 2823 seconds
#
# Revision: 2
# Processed by: cddbd v1.5.2PL0 Copyright (c) Steve Scherf et al.
# Submitted via: ExactAudioCopyFreeDBPlugin 1.0
#
DISCID=a20b050d
DTITLE=Various Artist - Cowboy Up 3
DYEAR=2000
DGENRE=Country
TTITLE0=Lonestar - When Cowboys Didn't Dance
TTITLE1=Brooks and Dunn - A Few Good Rides Away
TTITLE2=Clint Black - State Of Mind
TTITLE3=Marty Stuart - Western Girls
TTITLE4=Pam Tillis - Let That Pony Run
TTITLE5=John Michael Montgomery - Just Like A Rodeo
TTITLE6=Montgomery Gentry - Lonely and Gone
TTITLE7=Travis Tritt - Put Some Drive In Your Counrty
TTITLE8=Colin Raye - Little Red Rodeo
TTITLE9=Lee Roy Parnell - Country Down To My Soul
TTITLE10=Tracy Byrd - Cowgirl
TTITLE11=Sylvia - Even A Cowboy Can Dream
TTITLE12=Marty Stuart - Me and Billy The Kid
EXTD=
EXTT0=
EXTT1=
EXTT2=
EXTT3=
EXTT4=
EXTT5=
EXTT6=
EXTT7=
EXTT8=
EXTT9=
EXTT10=
EXTT11=
EXTT12=
PLAYORDER=
